<?xml version="1.0" encoding="UTF-8" standalone="no"?>
<!DOCTYPE svg PUBLIC "-//W3C//DTD SVG 1.1//EN"
 "http://www.w3.org/Graphics/SVG/1.1/DTD/svg11.dtd">
<!-- Generated by graphviz version 2.36.0 (20140111.2315)
 -->
<!-- Title: G Pages: 1 -->
<svg width="186pt" height="1674pt"
 viewBox="0.00 0.00 186.00 1674.00" xmlns="http://www.w3.org/2000/svg" xmlns:xlink="http://www.w3.org/1999/xlink">
<g id="graph0" class="graph" transform="scale(1 1) rotate(0) translate(4 1670)">
<title>G</title>
<polygon fill="white" stroke="none" points="-4,4 -4,-1670 182,-1670 182,4 -4,4"/>
<!-- 4423709024 -->
<g id="node1" class="node"><title>4423709024</title>
<polygon fill="none" stroke="black" points="24.8188,-1629 24.8188,-1665 153.181,-1665 153.181,-1629 24.8188,-1629"/>
<text text-anchor="middle" x="89" y="-1642.8" font-family="Times,serif" font-size="14.00">input_1: InputLayer</text>
</g>
<!-- 4985678424 -->
<g id="node2" class="node"><title>4985678424</title>
<polygon fill="none" stroke="black" points="13.9224,-1555 13.9224,-1591 164.078,-1591 164.078,-1555 13.9224,-1555"/>
<text text-anchor="middle" x="89" y="-1568.8" font-family="Times,serif" font-size="14.00">block1_conv1: Conv2D</text>
</g>
<!-- 4423709024&#45;&gt;4985678424 -->
<g id="edge1" class="edge"><title>4423709024&#45;&gt;4985678424</title>
<path fill="none" stroke="black" d="M89,-1628.94C89,-1620.81 89,-1610.88 89,-1601.7"/>
<polygon fill="black" stroke="black" points="92.5001,-1601.44 89,-1591.44 85.5001,-1601.44 92.5001,-1601.44"/>
</g>
<!-- 4422399704 -->
<g id="node3" class="node"><title>4422399704</title>
<polygon fill="none" stroke="black" points="13.9224,-1481 13.9224,-1517 164.078,-1517 164.078,-1481 13.9224,-1481"/>
<text text-anchor="middle" x="89" y="-1494.8" font-family="Times,serif" font-size="14.00">block1_conv2: Conv2D</text>
</g>
<!-- 4985678424&#45;&gt;4422399704 -->
<g id="edge2" class="edge"><title>4985678424&#45;&gt;4422399704</title>
<path fill="none" stroke="black" d="M89,-1554.94C89,-1546.81 89,-1536.88 89,-1527.7"/>
<polygon fill="black" stroke="black" points="92.5001,-1527.44 89,-1517.44 85.5001,-1527.44 92.5001,-1527.44"/>
</g>
<!-- 4985831608 -->
<g id="node4" class="node"><title>4985831608</title>
<polygon fill="none" stroke="black" points="-0.860352,-1407 -0.860352,-1443 178.86,-1443 178.86,-1407 -0.860352,-1407"/>
<text text-anchor="middle" x="89" y="-1420.8" font-family="Times,serif" font-size="14.00">block1_pool: MaxPooling2D</text>
</g>
<!-- 4422399704&#45;&gt;4985831608 -->
<g id="edge3" class="edge"><title>4422399704&#45;&gt;4985831608</title>
<path fill="none" stroke="black" d="M89,-1480.94C89,-1472.81 89,-1462.88 89,-1453.7"/>
<polygon fill="black" stroke="black" points="92.5001,-1453.44 89,-1443.44 85.5001,-1453.44 92.5001,-1453.44"/>
</g>
<!-- 4985834016 -->
<g id="node5" class="node"><title>4985834016</title>
<polygon fill="none" stroke="black" points="13.9224,-1333 13.9224,-1369 164.078,-1369 164.078,-1333 13.9224,-1333"/>
<text text-anchor="middle" x="89" y="-1346.8" font-family="Times,serif" font-size="14.00">block2_conv1: Conv2D</text>
</g>
<!-- 4985831608&#45;&gt;4985834016 -->
<g id="edge4" class="edge"><title>4985831608&#45;&gt;4985834016</title>
<path fill="none" stroke="black" d="M89,-1406.94C89,-1398.81 89,-1388.88 89,-1379.7"/>
<polygon fill="black" stroke="black" points="92.5001,-1379.44 89,-1369.44 85.5001,-1379.44 92.5001,-1379.44"/>
</g>
<!-- 4986030904 -->
<g id="node6" class="node"><title>4986030904</title>
<polygon fill="none" stroke="black" points="13.9224,-1259 13.9224,-1295 164.078,-1295 164.078,-1259 13.9224,-1259"/>
<text text-anchor="middle" x="89" y="-1272.8" font-family="Times,serif" font-size="14.00">block2_conv2: Conv2D</text>
</g>
<!-- 4985834016&#45;&gt;4986030904 -->
<g id="edge5" class="edge"><title>4985834016&#45;&gt;4986030904</title>
<path fill="none" stroke="black" d="M89,-1332.94C89,-1324.81 89,-1314.88 89,-1305.7"/>
<polygon fill="black" stroke="black" points="92.5001,-1305.44 89,-1295.44 85.5001,-1305.44 92.5001,-1305.44"/>
</g>
<!-- 4986112712 -->
<g id="node7" class="node"><title>4986112712</title>
<polygon fill="none" stroke="black" points="-0.860352,-1185 -0.860352,-1221 178.86,-1221 178.86,-1185 -0.860352,-1185"/>
<text text-anchor="middle" x="89" y="-1198.8" font-family="Times,serif" font-size="14.00">block2_pool: MaxPooling2D</text>
</g>
<!-- 4986030904&#45;&gt;4986112712 -->
<g id="edge6" class="edge"><title>4986030904&#45;&gt;4986112712</title>
<path fill="none" stroke="black" d="M89,-1258.94C89,-1250.81 89,-1240.88 89,-1231.7"/>
<polygon fill="black" stroke="black" points="92.5001,-1231.44 89,-1221.44 85.5001,-1231.44 92.5001,-1231.44"/>
</g>
<!-- 4986111704 -->
<g id="node8" class="node"><title>4986111704</title>
<polygon fill="none" stroke="black" points="13.9224,-1111 13.9224,-1147 164.078,-1147 164.078,-1111 13.9224,-1111"/>
<text text-anchor="middle" x="89" y="-1124.8" font-family="Times,serif" font-size="14.00">block3_conv1: Conv2D</text>
</g>
<!-- 4986112712&#45;&gt;4986111704 -->
<g id="edge7" class="edge"><title>4986112712&#45;&gt;4986111704</title>
<path fill="none" stroke="black" d="M89,-1184.94C89,-1176.81 89,-1166.88 89,-1157.7"/>
<polygon fill="black" stroke="black" points="92.5001,-1157.44 89,-1147.44 85.5001,-1157.44 92.5001,-1157.44"/>
</g>
<!-- 4986254224 -->
<g id="node9" class="node"><title>4986254224</title>
<polygon fill="none" stroke="black" points="13.9224,-1037 13.9224,-1073 164.078,-1073 164.078,-1037 13.9224,-1037"/>
<text text-anchor="middle" x="89" y="-1050.8" font-family="Times,serif" font-size="14.00">block3_conv2: Conv2D</text>
</g>
<!-- 4986111704&#45;&gt;4986254224 -->
<g id="edge8" class="edge"><title>4986111704&#45;&gt;4986254224</title>
<path fill="none" stroke="black" d="M89,-1110.94C89,-1102.81 89,-1092.88 89,-1083.7"/>
<polygon fill="black" stroke="black" points="92.5001,-1083.44 89,-1073.44 85.5001,-1083.44 92.5001,-1083.44"/>
</g>
<!-- 4986395280 -->
<g id="node10" class="node"><title>4986395280</title>
<polygon fill="none" stroke="black" points="13.9224,-963 13.9224,-999 164.078,-999 164.078,-963 13.9224,-963"/>
<text text-anchor="middle" x="89" y="-976.8" font-family="Times,serif" font-size="14.00">block3_conv3: Conv2D</text>
</g>
<!-- 4986254224&#45;&gt;4986395280 -->
<g id="edge9" class="edge"><title>4986254224&#45;&gt;4986395280</title>
<path fill="none" stroke="black" d="M89,-1036.94C89,-1028.81 89,-1018.88 89,-1009.7"/>
<polygon fill="black" stroke="black" points="92.5001,-1009.44 89,-999.441 85.5001,-1009.44 92.5001,-1009.44"/>
</g>
<!-- 4986480344 -->
<g id="node11" class="node"><title>4986480344</title>
<polygon fill="none" stroke="black" points="-0.860352,-889 -0.860352,-925 178.86,-925 178.86,-889 -0.860352,-889"/>
<text text-anchor="middle" x="89" y="-902.8" font-family="Times,serif" font-size="14.00">block3_pool: MaxPooling2D</text>
</g>
<!-- 4986395280&#45;&gt;4986480344 -->
<g id="edge10" class="edge"><title>4986395280&#45;&gt;4986480344</title>
<path fill="none" stroke="black" d="M89,-962.937C89,-954.807 89,-944.876 89,-935.705"/>
<polygon fill="black" stroke="black" points="92.5001,-935.441 89,-925.441 85.5001,-935.441 92.5001,-935.441"/>
</g>
<!-- 4986479336 -->
<g id="node12" class="node"><title>4986479336</title>
<polygon fill="none" stroke="black" points="13.9224,-815 13.9224,-851 164.078,-851 164.078,-815 13.9224,-815"/>
<text text-anchor="middle" x="89" y="-828.8" font-family="Times,serif" font-size="14.00">block4_conv1: Conv2D</text>
</g>
<!-- 4986480344&#45;&gt;4986479336 -->
<g id="edge11" class="edge"><title>4986480344&#45;&gt;4986479336</title>
<path fill="none" stroke="black" d="M89,-888.937C89,-880.807 89,-870.876 89,-861.705"/>
<polygon fill="black" stroke="black" points="92.5001,-861.441 89,-851.441 85.5001,-861.441 92.5001,-861.441"/>
</g>
<!-- 4986628976 -->
<g id="node13" class="node"><title>4986628976</title>
<polygon fill="none" stroke="black" points="13.9224,-741 13.9224,-777 164.078,-777 164.078,-741 13.9224,-741"/>
<text text-anchor="middle" x="89" y="-754.8" font-family="Times,serif" font-size="14.00">block4_conv2: Conv2D</text>
</g>
<!-- 4986479336&#45;&gt;4986628976 -->
<g id="edge12" class="edge"><title>4986479336&#45;&gt;4986628976</title>
<path fill="none" stroke="black" d="M89,-814.937C89,-806.807 89,-796.876 89,-787.705"/>
<polygon fill="black" stroke="black" points="92.5001,-787.441 89,-777.441 85.5001,-787.441 92.5001,-787.441"/>
</g>
<!-- 4986718808 -->
<g id="node14" class="node"><title>4986718808</title>
<polygon fill="none" stroke="black" points="13.9224,-667 13.9224,-703 164.078,-703 164.078,-667 13.9224,-667"/>
<text text-anchor="middle" x="89" y="-680.8" font-family="Times,serif" font-size="14.00">block4_conv3: Conv2D</text>
</g>
<!-- 4986628976&#45;&gt;4986718808 -->
<g id="edge13" class="edge"><title>4986628976&#45;&gt;4986718808</title>
<path fill="none" stroke="black" d="M89,-740.937C89,-732.807 89,-722.876 89,-713.705"/>
<polygon fill="black" stroke="black" points="92.5001,-713.441 89,-703.441 85.5001,-713.441 92.5001,-713.441"/>
</g>
<!-- 4986769080 -->
<g id="node15" class="node"><title>4986769080</title>
<polygon fill="none" stroke="black" points="-0.860352,-593 -0.860352,-629 178.86,-629 178.86,-593 -0.860352,-593"/>
<text text-anchor="middle" x="89" y="-606.8" font-family="Times,serif" font-size="14.00">block4_pool: MaxPooling2D</text>
</g>
<!-- 4986718808&#45;&gt;4986769080 -->
<g id="edge14" class="edge"><title>4986718808&#45;&gt;4986769080</title>
<path fill="none" stroke="black" d="M89,-666.937C89,-658.807 89,-648.876 89,-639.705"/>
<polygon fill="black" stroke="black" points="92.5001,-639.441 89,-629.441 85.5001,-639.441 92.5001,-639.441"/>
</g>
<!-- 4986868512 -->
<g id="node16" class="node"><title>4986868512</title>
<polygon fill="none" stroke="black" points="13.9224,-519 13.9224,-555 164.078,-555 164.078,-519 13.9224,-519"/>
<text text-anchor="middle" x="89" y="-532.8" font-family="Times,serif" font-size="14.00">block5_conv1: Conv2D</text>
</g>
<!-- 4986769080&#45;&gt;4986868512 -->
<g id="edge15" class="edge"><title>4986769080&#45;&gt;4986868512</title>
<path fill="none" stroke="black" d="M89,-592.937C89,-584.807 89,-574.876 89,-565.705"/>
<polygon fill="black" stroke="black" points="92.5001,-565.441 89,-555.441 85.5001,-565.441 92.5001,-565.441"/>
</g>
<!-- 4986956432 -->
<g id="node17" class="node"><title>4986956432</title>
<polygon fill="none" stroke="black" points="13.9224,-445 13.9224,-481 164.078,-481 164.078,-445 13.9224,-445"/>
<text text-anchor="middle" x="89" y="-458.8" font-family="Times,serif" font-size="14.00">block5_conv2: Conv2D</text>
</g>
<!-- 4986868512&#45;&gt;4986956432 -->
<g id="edge16" class="edge"><title>4986868512&#45;&gt;4986956432</title>
<path fill="none" stroke="black" d="M89,-518.937C89,-510.807 89,-500.876 89,-491.705"/>
<polygon fill="black" stroke="black" points="92.5001,-491.441 89,-481.441 85.5001,-491.441 92.5001,-491.441"/>
</g>
<!-- 4987098728 -->
<g id="node18" class="node"><title>4987098728</title>
<polygon fill="none" stroke="black" points="13.9224,-371 13.9224,-407 164.078,-407 164.078,-371 13.9224,-371"/>
<text text-anchor="middle" x="89" y="-384.8" font-family="Times,serif" font-size="14.00">block5_conv3: Conv2D</text>
</g>
<!-- 4986956432&#45;&gt;4987098728 -->
<g id="edge17" class="edge"><title>4986956432&#45;&gt;4987098728</title>
<path fill="none" stroke="black" d="M89,-444.937C89,-436.807 89,-426.876 89,-417.705"/>
<polygon fill="black" stroke="black" points="92.5001,-417.441 89,-407.441 85.5001,-417.441 92.5001,-417.441"/>
</g>
<!-- 4987239168 -->
<g id="node19" class="node"><title>4987239168</title>
<polygon fill="none" stroke="black" points="-0.860352,-297 -0.860352,-333 178.86,-333 178.86,-297 -0.860352,-297"/>
<text text-anchor="middle" x="89" y="-310.8" font-family="Times,serif" font-size="14.00">block5_pool: MaxPooling2D</text>
</g>
<!-- 4987098728&#45;&gt;4987239168 -->
<g id="edge18" class="edge"><title>4987098728&#45;&gt;4987239168</title>
<path fill="none" stroke="black" d="M89,-370.937C89,-362.807 89,-352.876 89,-343.705"/>
<polygon fill="black" stroke="black" points="92.5001,-343.441 89,-333.441 85.5001,-343.441 92.5001,-343.441"/>
</g>
<!-- 4987169312 -->
<g id="node20" class="node"><title>4987169312</title>
<polygon fill="none" stroke="black" points="40.3672,-223 40.3672,-259 137.633,-259 137.633,-223 40.3672,-223"/>
<text text-anchor="middle" x="89" y="-236.8" font-family="Times,serif" font-size="14.00">flatten: Flatten</text>
</g>
<!-- 4987239168&#45;&gt;4987169312 -->
<g id="edge19" class="edge"><title>4987239168&#45;&gt;4987169312</title>
<path fill="none" stroke="black" d="M89,-296.937C89,-288.807 89,-278.876 89,-269.705"/>
<polygon fill="black" stroke="black" points="92.5001,-269.441 89,-259.441 85.5001,-269.441 92.5001,-269.441"/>
</g>
<!-- 4987325856 -->
<g id="node21" class="node"><title>4987325856</title>
<polygon fill="none" stroke="black" points="50.874,-149 50.874,-185 127.126,-185 127.126,-149 50.874,-149"/>
<text text-anchor="middle" x="89" y="-162.8" font-family="Times,serif" font-size="14.00">fc1: Dense</text>
</g>
<!-- 4987169312&#45;&gt;4987325856 -->
<g id="edge20" class="edge"><title>4987169312&#45;&gt;4987325856</title>
<path fill="none" stroke="black" d="M89,-222.937C89,-214.807 89,-204.876 89,-195.705"/>
<polygon fill="black" stroke="black" points="92.5001,-195.441 89,-185.441 85.5001,-195.441 92.5001,-195.441"/>
</g>
<!-- 4987403288 -->
<g id="node22" class="node"><title>4987403288</title>
<polygon fill="none" stroke="black" points="50.874,-75 50.874,-111 127.126,-111 127.126,-75 50.874,-75"/>
<text text-anchor="middle" x="89" y="-88.8" font-family="Times,serif" font-size="14.00">fc2: Dense</text>
</g>
<!-- 4987325856&#45;&gt;4987403288 -->
<g id="edge21" class="edge"><title>4987325856&#45;&gt;4987403288</title>
<path fill="none" stroke="black" d="M89,-148.937C89,-140.807 89,-130.876 89,-121.705"/>
<polygon fill="black" stroke="black" points="92.5001,-121.441 89,-111.441 85.5001,-121.441 92.5001,-121.441"/>
</g>
<!-- 4987324064 -->
<g id="node23" class="node"><title>4987324064</title>
<polygon fill="none" stroke="black" points="28.7085,-1 28.7085,-37 149.292,-37 149.292,-1 28.7085,-1"/>
<text text-anchor="middle" x="89" y="-14.8" font-family="Times,serif" font-size="14.00">predictions: Dense</text>
</g>
<!-- 4987403288&#45;&gt;4987324064 -->
<g id="edge22" class="edge"><title>4987403288&#45;&gt;4987324064</title>
<path fill="none" stroke="black" d="M89,-74.937C89,-66.8072 89,-56.8761 89,-47.7047"/>
<polygon fill="black" stroke="black" points="92.5001,-47.4406 89,-37.4407 85.5001,-47.4407 92.5001,-47.4406"/>
</g>
</g>
</svg>
